<?xml version="1.0" encoding="utf-8"?>
<!-- Generator: Adobe Illustrator 16.0.0, SVG Export Plug-In . SVG Version: 6.00 Build 0)  -->
<!DOCTYPE svg PUBLIC "-//W3C//DTD SVG 1.1//EN" "http://www.w3.org/Graphics/SVG/1.1/DTD/svg11.dtd">
<svg version="1.1" id="Layer_1" xmlns="http://www.w3.org/2000/svg" xmlns:xlink="http://www.w3.org/1999/xlink" x="0px" y="0px"
	 width="288px" height="61px" viewBox="0 0 288 61" enable-background="new 0 0 288 61" xml:space="preserve">
<g>
	<g>
		<g>
			<path fill="#FF6C2C" d="M14.694,57.004c1.278,0.465,2.598,0.847,3.957,1.135L14.694,57.004z"/>
		</g>
		<path fill="#FF6C2C" d="M34.742,43.012c-2.676-0.398-5.346-0.938-7.962-1.619c-0.075-0.02-0.146-0.033-0.218-0.052
			c-1.847-0.465-3.551-0.973-5.111-1.505c-0.219-0.122-0.493-0.244-0.831-0.369c-5.12-1.875-9.736-4.368-13.209-7.305
			c0,0,0.008-0.005,0.01-0.011c-3.041-2.642-5.188-5.657-6.049-8.749c-0.094-0.4-0.158-0.796-0.21-1.199
			C1.211,21.801,1.278,21.399,1.365,21c0.843-3.092,2.976-6.116,6.002-8.778c-0.003,0-0.011-0.003-0.011-0.015
			c3.457-2.948,8.059-5.469,13.165-7.372c0.344-0.122,0.616-0.249,0.838-0.373c1.557-0.542,3.256-1.058,5.101-1.526
			c0.075-0.025,0.144-0.041,0.218-0.059c0.72-0.193,1.439-0.372,2.163-0.539C27.397,2.113,25.914,2,24.407,2
			c-2.602,0.01-5.11,0.376-7.503,1.04C13.027,4.78,9.459,6.848,6.709,9.315c-1.229,1.114-2.18,2.36-3.035,3.614
			c-0.227,0.313-0.444,0.63-0.64,0.949c-1.889,3.125-2.063,5.749-2.031,6.869c0.012,0.368,0.078,1.316,0.101,1.457
			c-0.022,0.142-0.086,1.085-0.093,1.463c-0.023,1.113,0.166,3.737,2.067,6.849c0.201,0.32,0.417,0.637,0.647,0.948
			c0.854,1.25,1.91,2.446,3.152,3.554c5.726,5.092,14.502,8.628,23.712,10.538c4.455,0.924,8.85,1.431,12.973,1.544
			c1.336,0.034,2.624,0.034,3.854-0.021c0.777-1.061,1.483-2.179,2.109-3.35C46.083,44.013,41.146,44.016,34.742,43.012z"/>
		<path fill="#FF6C2C" d="M45.433,49.51c-2.928,0-6.484-0.224-10.677-0.882c-2.672-0.396-5.346-0.936-7.958-1.619
			c-0.077-0.019-0.145-0.033-0.217-0.056c-1.854-0.459-3.556-0.969-5.114-1.499c-0.221-0.128-0.491-0.247-0.834-0.371
			c-5.119-1.874-9.735-4.371-13.207-7.303c0.006-0.007,0.007-0.01,0.007-0.01c-3.037-2.64-5.186-5.665-6.048-8.762
			c-0.087-0.393-0.158-0.789-0.207-1.188c0.047-0.402,0.114-0.803,0.203-1.195c0.842-3.1,2.974-6.131,6-8.785
			c-0.006-0.006-0.01-0.013-0.014-0.017c3.457-2.948,8.065-5.459,13.173-7.37c0.345-0.127,0.612-0.247,0.833-0.379
			c1.558-0.533,3.257-1.051,5.106-1.524c0.071-0.021,0.138-0.037,0.211-0.055c2.612-0.695,5.28-1.251,7.956-1.662
			c1.671-0.27,3.239-0.468,4.712-0.618c-1.673-1.032-3.463-1.898-5.346-2.568c-1.171,0.19-2.346,0.415-3.534,0.669
			C21.276,6.272,12.523,9.847,6.822,14.978c-1.229,1.11-2.277,2.313-3.131,3.569c-0.228,0.312-0.447,0.626-0.642,0.949
			c-2.518,4.17-1.989,7.438-1.989,7.438s-0.004,0.174-0.004,0.459c0.016,0.146,0.042,0.287,0.063,0.428
			c-0.021,0.139-0.044,0.283-0.063,0.418C1.061,28.533,1.064,28.7,1.064,28.7s-0.507,3.281,2.027,7.436
			c0.202,0.32,0.42,0.627,0.65,0.943c0.853,1.25,1.908,2.447,3.15,3.549c5.728,5.097,14.501,8.632,23.712,10.543
			c3.907,0.807,7.769,1.291,11.431,1.483C43.254,51.694,44.388,50.647,45.433,49.51z"/>
		<path fill="#FF6C2C" d="M42.871,8.772c-3.948,0.165-8.132,0.683-12.374,1.592c-9.204,1.958-17.958,5.539-23.657,10.661
			c-1.236,1.108-2.28,2.312-3.132,3.566c-0.23,0.321-0.444,0.631-0.644,0.955c-2.516,4.163-1.989,7.441-1.989,7.441
			s0,0.165-0.006,0.457c0.021,0.146,0.042,0.283,0.069,0.419c-0.027,0.146-0.049,0.285-0.066,0.427
			c0.005,0.29,0.009,0.461,0.009,0.461s-0.512,3.276,2.024,7.429c0.204,0.315,0.423,0.633,0.648,0.95
			c0.861,1.25,1.912,2.443,3.149,3.548c5.73,5.096,14.502,8.625,23.721,10.539c0.626,0.134,1.261,0.253,1.884,0.371
			c2.038-0.604,3.982-1.418,5.798-2.439c-1.123-0.128-2.297-0.279-3.533-0.47c-2.674-0.402-5.35-0.945-7.96-1.62
			c-0.076-0.019-0.146-0.04-0.219-0.054c-1.852-0.464-3.548-0.972-5.112-1.504c-0.218-0.127-0.492-0.25-0.834-0.374
			c-5.118-1.871-9.736-4.364-13.209-7.301c0.004-0.004,0.007-0.008,0.012-0.013c-3.04-2.637-5.186-5.658-6.048-8.75
			c-0.094-0.397-0.158-0.793-0.207-1.2c0.046-0.402,0.109-0.798,0.2-1.187c0.847-3.1,2.972-6.134,6.006-8.794
			c-0.008-0.005-0.008-0.005-0.018-0.01c3.462-2.948,8.063-5.463,13.174-7.37c0.34-0.126,0.612-0.253,0.832-0.372
			c1.555-0.542,3.252-1.063,5.101-1.535c0.072-0.02,0.144-0.039,0.215-0.056c2.614-0.693,5.285-1.246,7.958-1.662
			c4.538-0.731,8.332-0.952,11.387-0.929C45.073,10.805,44.015,9.744,42.871,8.772z"/>
		<path fill="#FF6C2C" d="M43.472,14.28c-4.118,0.137-8.512,0.666-12.964,1.605c-9.2,1.964-17.957,5.548-23.654,10.673
			c-1.233,1.111-2.281,2.31-3.133,3.566c-0.226,0.313-0.444,0.628-0.642,0.948c-2.519,4.17-1.989,7.44-1.989,7.44
			s0,0.172-0.003,0.468c0.016,0.135,0.04,0.273,0.063,0.412c-0.023,0.143-0.043,0.288-0.061,0.429c0,0.287,0.002,0.462,0.002,0.462
			s-0.506,3.28,2.031,7.427c0.2,0.319,0.418,0.632,0.646,0.945c0.857,1.249,1.915,2.452,3.15,3.547
			c1.402,1.251,2.991,2.401,4.725,3.463c3.875,1.969,8.267,3.087,12.915,3.074c0.816,0,1.623-0.047,2.422-0.12
			c-0.049-0.008-0.105-0.023-0.153-0.031c-0.076-0.024-0.144-0.038-0.219-0.054c-1.854-0.47-3.55-0.976-5.107-1.504
			c-0.229-0.123-0.499-0.247-0.835-0.38c-5.121-1.871-9.739-4.358-13.216-7.294c0.006-0.008,0.012-0.008,0.019-0.014
			c-3.044-2.637-5.194-5.659-6.055-8.749c-0.088-0.397-0.159-0.798-0.203-1.202c0.039-0.4,0.11-0.794,0.203-1.192
			c0.842-3.095,2.97-6.13,6-8.783c-0.003-0.008-0.01-0.015-0.013-0.015c3.458-2.954,8.059-5.467,13.169-7.375
			c0.343-0.119,0.613-0.249,0.832-0.372c1.558-0.543,3.256-1.062,5.105-1.536c0.073-0.013,0.142-0.029,0.213-0.046
			c2.616-0.698,5.284-1.254,7.959-1.666c6.648-1.072,11.708-1.057,15.164-0.761c-0.583-1.167-1.243-2.288-1.979-3.354
			C46.477,14.238,45.006,14.223,43.472,14.28z"/>
		<g>
			<path fill="#FF6C2C" d="M1.043,37.744c0,0-0.036-15.309-0.04-15.622c-0.009-0.33,0.026-0.9,0.026-0.9s0.082,0.579,0.337,1.501
				c0.861,3.095,3.011,6.117,6.053,8.758c-0.005,0-0.008,0-0.015,0.011c3.477,2.925,8.096,5.421,13.21,7.299
				c0.342,0.124,0.614,0.247,0.835,0.369c1.563,0.533,3.263,1.037,5.113,1.506c0.071,0.018,0.141,0.03,0.215,0.045
				c2.619,0.688,5.289,1.232,7.962,1.628c6.659,1.038,11.726,0.996,15.177,0.673l0,0c-4.635,9.326-14.232,15.752-25.357,15.782
				c-2.576,0.008-4.519-0.235-7.447-0.972c-4.856-1.209-7.338-3.261-10.192-5.621c-7.03-5.805-5.827-12.598-5.827-12.598
				S1.09,37.725,1.043,37.744z"/>
		</g>
	</g>
	<g>
		<path fill="#385072" d="M61.896,30.758c0,1.572,0.233,2.95,0.691,4.148c0.465,1.209,1.084,2.21,1.861,3.024
			c0.773,0.808,1.664,1.424,2.668,1.844c1.012,0.418,2.063,0.629,3.148,0.629c0.834,0,1.601-0.144,2.325-0.441
			c0.709-0.294,1.387-0.687,2.019-1.186c0.631-0.494,1.218-1.073,1.766-1.724c0.542-0.655,1.071-1.342,1.571-2.055l2.433,1.825
			c-0.515,0.856-1.146,1.678-1.896,2.471c-0.738,0.794-1.57,1.493-2.502,2.102c-0.925,0.607-1.933,1.096-3.025,1.461
			c-1.09,0.361-2.234,0.55-3.45,0.55c-2.04,0-3.925-0.305-5.646-0.908c-1.73-0.603-3.225-1.457-4.475-2.563
			c-1.258-1.103-2.239-2.441-2.938-3.995c-0.696-1.559-1.051-3.288-1.051-5.183c0-1.835,0.337-3.529,1.003-5.071
			c0.671-1.543,1.609-2.882,2.819-4.007c1.2-1.125,2.655-1.997,4.348-2.632c1.689-0.624,3.561-0.94,5.604-0.94
			c1.376,0,2.63,0.167,3.771,0.492c1.138,0.327,2.169,0.781,3.1,1.354c0.928,0.581,1.755,1.272,2.484,2.068
			c0.73,0.796,1.376,1.677,1.932,2.628L77.989,26.4c-0.509-0.714-1.054-1.396-1.632-2.043c-0.589-0.646-1.212-1.208-1.876-1.686
			c-0.672-0.476-1.373-0.856-2.108-1.142c-0.736-0.28-1.497-0.42-2.291-0.42c-1.101,0-2.147,0.208-3.127,0.62
			c-0.984,0.412-1.854,1.031-2.61,1.852c-0.759,0.811-1.348,1.821-1.791,3.018C62.116,27.802,61.896,29.183,61.896,30.758z"/>
		<path fill="#385072" d="M97.566,43.406c-1.278,0-2.498-0.15-3.674-0.441c-1.172-0.288-2.263-0.69-3.27-1.222
			c-1-0.525-1.91-1.174-2.737-1.94c-0.821-0.767-1.523-1.622-2.104-2.566c-0.58-0.947-1.029-1.971-1.349-3.091
			c-0.313-1.117-0.467-2.297-0.467-3.542c0-1.833,0.345-3.508,1.046-5.032c0.698-1.519,1.655-2.822,2.874-3.917
			c1.224-1.094,2.656-1.947,4.316-2.554c1.659-0.611,3.448-0.914,5.364-0.914c1.919,0,3.703,0.303,5.354,0.914
			c1.651,0.607,3.09,1.46,4.309,2.554c1.224,1.095,2.177,2.398,2.879,3.917c0.694,1.524,1.044,3.187,1.044,4.998
			c0,1.921-0.35,3.668-1.044,5.246c-0.702,1.575-1.655,2.928-2.879,4.055c-1.219,1.123-2.657,1.995-4.309,2.606
			C101.27,43.093,99.485,43.406,97.566,43.406z M97.566,41.348c1.153,0,2.168-0.265,3.057-0.803c0.881-0.529,1.622-1.28,2.226-2.232
			c0.6-0.957,1.054-2.086,1.363-3.407c0.309-1.309,0.466-2.743,0.466-4.302c0-1.518-0.157-2.912-0.466-4.192
			c-0.31-1.275-0.764-2.37-1.363-3.288c-0.604-0.916-1.345-1.627-2.226-2.139c-0.889-0.509-1.903-0.763-3.057-0.763
			c-1.177,0-2.206,0.253-3.092,0.763c-0.886,0.512-1.63,1.224-2.237,2.139c-0.603,0.917-1.061,2.012-1.364,3.288
			c-0.301,1.28-0.451,2.675-0.451,4.192c0,1.559,0.15,2.993,0.451,4.302c0.304,1.32,0.762,2.45,1.364,3.407
			c0.607,0.953,1.352,1.703,2.237,2.232C95.36,41.083,96.39,41.348,97.566,41.348z"/>
		<path fill="#385072" d="M129.967,31.078h9.896v9.31c-0.77,0.417-1.536,0.795-2.299,1.142c-0.755,0.344-1.57,0.641-2.435,0.891
			c-0.867,0.252-1.812,0.451-2.829,0.598c-1.022,0.143-2.173,0.218-3.442,0.218c-2.041,0-3.93-0.294-5.663-0.88
			c-1.732-0.583-3.222-1.406-4.469-2.466c-1.255-1.062-2.232-2.34-2.931-3.835c-0.714-1.499-1.059-3.155-1.059-4.976
			c0-1.922,0.345-3.684,1.051-5.275c0.694-1.596,1.668-2.963,2.918-4.104c1.249-1.131,2.739-2.016,4.465-2.651
			c1.723-0.624,3.615-0.94,5.647-0.94c1.21,0,2.379,0.167,3.5,0.492c1.116,0.327,2.155,0.766,3.106,1.314
			c0.951,0.545,1.811,1.168,2.565,1.873c0.753,0.706,1.382,1.432,1.873,2.188l-2.415,2.242c-0.506-0.714-1.03-1.39-1.579-2.009
			c-0.544-0.62-1.127-1.159-1.753-1.62c-0.628-0.46-1.288-0.818-1.987-1.084c-0.692-0.26-1.452-0.392-2.269-0.392
			c-1.24,0-2.384,0.219-3.436,0.675c-1.048,0.452-1.958,1.108-2.738,1.958c-0.77,0.855-1.374,1.9-1.822,3.135
			c-0.432,1.226-0.652,2.628-0.652,4.199s0.233,2.954,0.694,4.156c0.465,1.199,1.101,2.21,1.904,3.027
			c0.805,0.814,1.747,1.433,2.828,1.853c1.084,0.42,2.244,0.629,3.48,0.629c0.741,0,1.44-0.095,2.098-0.29
			c0.65-0.194,1.252-0.491,1.798-0.897v-6.424h-4.047V31.078z"/>
		<path fill="#385072" d="M145.709,18.695h5.841v15.528c0,0.945,0.152,1.824,0.427,2.636c0.287,0.819,0.697,1.535,1.229,2.155
			c0.535,0.612,1.174,1.095,1.929,1.449c0.756,0.35,1.606,0.526,2.543,0.526c0.936,0,1.766-0.177,2.524-0.526
			c0.751-0.354,1.396-0.837,1.92-1.449c0.531-0.62,0.934-1.336,1.219-2.155c0.283-0.813,0.424-1.691,0.424-2.636V18.695h3.68v15.528
			c0,1.245-0.208,2.422-0.628,3.538c-0.412,1.103-1.065,2.084-1.952,2.919c-0.888,0.832-2.037,1.496-3.426,1.988
			c-1.397,0.484-3.069,0.737-5.021,0.737c-1.744,0-3.289-0.253-4.621-0.737c-1.339-0.493-2.454-1.157-3.351-1.988
			c-0.895-0.835-1.581-1.817-2.043-2.933c-0.466-1.117-0.693-2.315-0.693-3.581V18.695z"/>
		<path fill="#385072" d="M173.287,18.695h5.678l8.224,16.511l8.128-16.511h5.549v24.161h-5.829V27.12l-7.756,15.736h-2.264
			l-8.037-15.926v15.926h-3.692V18.695z"/>
		<path fill="#385072" d="M224.472,18.695v2.054h-11.915v7.971h9.891v2.07h-9.891v9.597h11.915v2.469h-17.759V18.695H224.472z"/>
		<path fill="#385072" d="M229.327,18.695h5.84v21.692h12.137v2.469h-17.977V18.695z"/>
		<path fill="#385072" d="M263.414,43.406c-1.274,0-2.5-0.15-3.679-0.441c-1.175-0.288-2.263-0.69-3.261-1.222
			c-1.005-0.525-1.922-1.174-2.742-1.94c-0.827-0.767-1.524-1.622-2.103-2.566c-0.59-0.947-1.033-1.971-1.348-3.091
			c-0.315-1.117-0.47-2.297-0.47-3.542c0-1.833,0.34-3.508,1.047-5.032c0.695-1.519,1.652-2.822,2.873-3.917
			c1.221-1.094,2.655-1.947,4.313-2.554c1.662-0.611,3.446-0.914,5.368-0.914c1.917,0,3.699,0.303,5.351,0.914
			c1.653,0.607,3.09,1.46,4.308,2.554c1.223,1.095,2.174,2.398,2.88,3.917c0.697,1.524,1.048,3.187,1.048,4.998
			c0,1.921-0.351,3.668-1.048,5.246c-0.706,1.575-1.657,2.928-2.88,4.055c-1.218,1.123-2.654,1.995-4.308,2.606
			C267.113,43.093,265.331,43.406,263.414,43.406z M263.414,41.348c1.15,0,2.165-0.265,3.053-0.803
			c0.884-0.529,1.626-1.28,2.222-2.232c0.602-0.957,1.059-2.086,1.369-3.407c0.306-1.309,0.466-2.743,0.466-4.302
			c0-1.518-0.16-2.912-0.466-4.192c-0.311-1.275-0.768-2.37-1.369-3.288c-0.596-0.916-1.338-1.627-2.222-2.139
			c-0.888-0.509-1.902-0.763-3.053-0.763c-1.174,0-2.211,0.253-3.093,0.763c-0.881,0.512-1.627,1.224-2.234,2.139
			c-0.612,0.917-1.061,2.012-1.361,3.288c-0.309,1.28-0.458,2.675-0.458,4.192c0,1.559,0.149,2.993,0.458,4.302
			c0.301,1.32,0.749,2.45,1.361,3.407c0.607,0.953,1.354,1.703,2.234,2.232C261.203,41.083,262.24,41.348,263.414,41.348z"/>
	</g>
</g>
</svg>
